<svg width="80" height="103" viewBox="0 0 80 103" fill="none" xmlns="http://www.w3.org/2000/svg">
<path d="M0 62.7816C0 58.0717 1.28453 52.6659 3.8536 46.5644C6.42267 40.4628 9.74105 34.5219 13.8087 28.8485C22.1582 17.8229 29.4372 9.47344 35.5388 3.8536L39.553 0C40.891 1.39158 42.3896 2.67611 43.9953 3.8536C46.1897 6.10154 49.5616 9.79458 54.0575 15.0398C58.5534 20.2849 62.4605 24.9414 65.6718 29.2232C69.4719 34.6289 72.7368 40.4628 75.3594 46.6179C77.9819 52.773 79.32 58.1787 79.32 62.8351C79.32 68.1874 78.3031 73.272 76.2157 78.1425C74.1283 83.013 71.3452 87.2413 67.8127 90.7738C64.2802 94.3062 60.052 97.1429 55.1279 99.2303C50.2039 101.318 45.0122 102.388 39.553 102.388C34.2007 102.388 29.1161 101.371 24.2456 99.3373C19.3751 97.3035 15.1468 94.5738 11.6143 91.0414C8.08186 87.5624 5.24518 83.3342 3.15781 78.4636C1.07044 73.5931 0 68.3479 0 62.7816ZM12.096 47.0996C12.096 51.5419 13.0059 55.0744 14.8792 57.7505C16.7525 60.3731 19.5892 61.7112 23.3892 61.7112C27.2428 61.7112 30.0795 60.3731 32.0063 57.7505C33.8796 55.1279 34.843 51.5955 34.8965 47.0996C34.843 42.6037 33.8796 39.0713 32.0063 36.3951C30.133 33.7726 27.2428 32.4345 23.3892 32.4345C19.5892 32.4345 16.7525 33.7726 14.8792 36.3951C13.0059 39.0713 12.096 42.6037 12.096 47.0996ZM20.499 47.0996C20.499 46.2968 20.499 45.6545 20.499 45.2263C20.499 44.7981 20.5526 44.2094 20.6061 43.4601C20.6596 42.7108 20.7131 42.122 20.8737 41.7474C21.0343 41.3727 21.1413 40.891 21.3554 40.4628C21.5695 40.0347 21.8371 39.66 22.1582 39.4994C22.5329 39.2853 22.9075 39.1783 23.3892 39.1783C24.1385 39.1783 24.7273 39.3924 25.1555 39.8206C25.5836 40.2487 25.9048 40.9445 26.0653 41.8544C26.2259 42.8178 26.333 43.5671 26.3865 44.2629C26.44 44.9587 26.44 45.8686 26.44 47.0461C26.44 48.2771 26.44 49.187 26.3865 49.8292C26.333 50.4715 26.2259 51.2743 26.0653 52.2377C25.9048 53.1476 25.5836 53.8434 25.1555 54.2716C24.7273 54.6998 24.1385 54.9138 23.3892 54.9138C22.9075 54.9138 22.5329 54.8068 22.1582 54.5927C21.7836 54.3786 21.516 54.0575 21.3554 53.6293C21.1413 53.2011 20.9807 52.7194 20.8737 52.3448C20.7666 51.9166 20.6596 51.3279 20.6061 50.6321C20.5526 49.8828 20.499 49.294 20.499 48.9194C20.499 48.5447 20.499 47.9024 20.499 47.0996ZM23.6568 88.5793H30.7218L57.4294 31.0964H50.2039L23.6568 88.5793ZM46.6714 72.5762C46.7249 77.0721 47.7419 80.6045 49.6151 83.2807C51.4884 85.9032 54.3786 87.2413 58.1787 87.2413C62.0323 87.2413 64.869 85.9032 66.7423 83.2807C68.6156 80.6581 69.5254 77.0721 69.5789 72.5762C69.5254 68.0803 68.6156 64.5479 66.7423 61.9253C64.869 59.3027 62.0323 57.9646 58.1787 57.9646C54.3786 57.9646 51.4884 59.3027 49.6151 61.9253C47.6883 64.5479 46.7249 68.0803 46.6714 72.5762ZM55.0744 72.5762C55.0744 71.3452 55.0744 70.4353 55.1279 69.793C55.1815 69.1508 55.2885 68.3479 55.4491 67.3845C55.6096 66.4211 55.9308 65.7789 56.359 65.3507C56.7871 64.9225 57.3759 64.7084 58.1252 64.7084C58.6069 64.7084 59.0351 64.8155 59.4097 65.0296C59.7844 65.2436 60.052 65.5648 60.2661 66.0465C60.4802 66.5282 60.6407 66.9564 60.8013 67.331C60.9619 67.7057 61.0154 68.2944 61.0689 69.0437L61.1224 70.7564V72.5762V74.4495L61.0689 76.1622L60.8013 77.8749L60.2661 79.1594L59.4097 80.1764L58.1252 80.4975C57.3759 80.4975 56.7871 80.2834 56.359 79.8552C55.9308 79.427 55.6096 78.7313 55.4491 77.8214C55.2885 76.858 55.1815 76.0551 55.1279 75.4129C55.0744 74.7706 55.0744 73.8072 55.0744 72.5762Z" fill="white"/>
</svg>
