<svg width="53" height="53" viewBox="0 0 53 53" fill="none" xmlns="http://www.w3.org/2000/svg">
<path d="M26.4599 52.92C40.9091 52.92 52.92 40.9351 52.92 26.46C52.92 12.0108 40.8832 0 26.434 0C11.9588 0 0 12.0108 0 26.46C0 40.9351 11.9848 52.92 26.4599 52.92ZM26.4599 48.51C14.2157 48.51 4.43581 38.7042 4.43581 26.46C4.43581 14.2417 14.1898 4.41002 26.434 4.41002C38.6522 4.41002 48.4839 14.2417 48.51 26.46C48.536 38.7042 38.6782 48.51 26.4599 48.51ZM26.2265 17.225C28.1201 17.225 29.5987 15.7203 29.5987 13.8526C29.5987 11.9589 28.1201 10.4543 26.2265 10.4543C24.3327 10.4543 22.8541 11.9589 22.8541 13.8526C22.8541 15.7203 24.3327 17.225 26.2265 17.225ZM21.8943 40.7276H32.4782C33.5418 40.7276 34.3719 39.9753 34.3719 38.9117C34.3719 37.9 33.5418 37.0959 32.4782 37.0959H29.2616V23.8918C29.2616 22.491 28.5352 21.5571 27.2381 21.5571H22.3352C21.2976 21.5571 20.4674 22.3612 20.4674 23.373C20.4674 24.4366 21.2976 25.1889 22.3352 25.1889H25.1369V37.0959H21.8943C20.8566 37.0959 20.0265 37.9 20.0265 38.9117C20.0265 39.9753 20.8566 40.7276 21.8943 40.7276Z" fill="white"/>
</svg>
