<svg width="80" height="103" viewBox="0 0 80 103" fill="none" xmlns="http://www.w3.org/2000/svg">
<path d="M0 63.0453C0 70.0419 1.74915 76.5822 5.32349 82.5901C8.89783 88.5981 13.689 93.4653 19.773 97.0396C25.8569 100.614 32.3972 102.439 39.4699 102.439C46.5425 102.439 53.1589 100.614 59.3189 97.0396C65.4789 93.4653 70.3461 88.5981 73.9205 82.5901C77.4948 76.5062 79.32 70.0419 79.32 63.0453C79.32 58.4823 78.0271 53.0828 75.3654 46.7707C72.7037 40.4585 69.5096 34.6027 65.7831 29.2792C62.4369 24.9444 58.4823 20.1532 53.9193 14.9818C49.3564 9.81043 41.3711 1.8252 39.5459 0L29.8115 9.81043C25.0964 14.3734 20.5335 19.6209 16.1986 25.6288C11.8638 31.6367 8.06128 38.101 4.86719 45.0215C1.52099 51.9421 0 57.95 0 63.0453Z" fill="white"/>
</svg>
