<svg width="106" height="103" viewBox="0 0 106 103" fill="none" xmlns="http://www.w3.org/2000/svg">
<path d="M0 48.3139C0 42.4468 1.83664 37.243 5.50993 32.6514C9.18321 28.0598 13.8258 25.1518 19.4378 23.8253C21.0194 16.8869 24.6416 11.1729 30.2026 6.68334C35.7635 2.19377 42.1407 0 49.3343 0C56.3747 0 62.5989 2.19377 68.1088 6.53029C73.6188 10.8668 77.19 16.4788 78.8226 23.3152H80.4551C84.9957 23.3152 89.2302 24.4375 93.1076 26.6313C96.9849 28.8251 100.097 31.8862 102.342 35.7125C104.587 39.5388 105.76 43.7733 105.76 48.3139C105.76 52.8035 104.689 56.9359 102.546 60.7623C100.403 64.5886 97.4441 67.6497 93.7198 69.9455C89.9955 72.2413 85.9141 73.4657 81.4755 73.5677C80.8123 73.5677 80.4551 73.2616 80.4551 72.7004V65.9151C80.4551 65.3028 80.8123 64.9967 81.4755 64.9967C85.812 64.7927 89.5363 63.0581 92.5974 59.7929C95.6585 56.5278 97.189 52.7014 97.189 48.2629C97.189 43.8243 95.5054 39.998 92.1892 36.7329C88.8731 33.4677 84.9447 31.8351 80.4041 31.8351H72.1903C71.578 31.8351 71.2719 31.529 71.2719 30.9678L70.8638 28.0088C70.3026 22.4989 67.9048 17.8562 63.7723 14.183C59.5888 10.4587 54.7932 8.62202 49.2322 8.62202C43.6713 8.62202 38.7736 10.4587 34.6921 14.183C30.5597 17.9073 28.2639 22.4989 27.7537 28.0088L27.3966 30.7127C27.3966 31.325 27.0395 31.6821 26.3762 31.6821L23.6723 31.8351C19.4378 32.3453 15.8666 34.182 12.9585 37.294C10.0505 40.4061 8.62202 44.0794 8.62202 48.3139C8.62202 52.7525 10.1526 56.5788 13.2136 59.8439C16.2747 63.1091 19.999 64.8437 24.3355 65.0478C24.8967 65.0478 25.2028 65.3539 25.2028 65.9661V72.7515C25.2028 73.3126 24.8967 73.6188 24.3355 73.6188C17.4991 73.3126 11.7341 70.7107 6.98945 65.813C2.24479 60.9153 0 55.0993 0 48.3139ZM27.2945 82.4448C27.2945 82.2408 27.3456 81.8836 27.4986 81.4245L35.8145 51.9872C36.1206 51.0178 36.6818 50.2526 37.4471 49.7424C38.2124 49.2322 39.0287 48.9771 39.7939 48.9771C40.151 48.9771 40.5592 49.0281 41.0184 49.1302C42.2428 49.3343 43.1611 49.9975 43.7733 51.0178C44.3855 52.0382 44.5386 53.1606 44.1815 54.436L35.8655 83.6693C35.2533 85.863 33.8248 86.9344 31.6821 86.9344C31.478 86.9344 31.325 86.8834 31.1209 86.8324C30.8148 86.7303 30.6617 86.6793 30.6107 86.6793C29.4883 86.3732 28.672 85.812 28.1108 84.9957C27.5496 84.1284 27.2945 83.3121 27.2945 82.4448ZM40.6612 96.7809L53.1096 52.0382C53.3136 51.0689 53.8238 50.3036 54.6401 49.7934C55.4564 49.2832 56.2727 49.0281 57.14 49.0281C57.5992 49.0281 58.0583 49.0792 58.5175 49.1812C59.6399 49.4873 60.4562 50.1505 61.0174 51.1709C61.5785 52.1913 61.6806 53.2626 61.3745 54.436L48.9771 99.2297C48.7731 100.097 48.3139 100.811 47.4976 101.423C46.6813 102.036 45.865 102.342 44.8957 102.342C44.4365 102.342 43.9774 102.24 43.6203 102.087C42.5999 101.832 41.7326 101.168 40.9673 100.097C40.4061 99.1787 40.3041 98.1073 40.6612 96.7809ZM61.7316 82.5469C61.7316 82.3428 61.7826 81.9857 61.9357 81.3735L70.2516 51.9362C70.5577 50.9668 71.0679 50.2016 71.7821 49.6914C72.5474 49.1812 73.3126 48.9261 74.1289 48.9261C74.5371 48.9261 74.9962 48.9771 75.4554 49.0792C76.5268 49.3853 77.292 49.8955 77.8022 50.6607C78.3124 51.426 78.5675 52.2423 78.5675 53.0586C78.5675 53.2116 78.5165 53.4667 78.4655 53.7728C78.4144 54.0789 78.3634 54.283 78.3634 54.385L70.0475 83.6182C69.8434 84.5876 69.3843 85.4039 68.619 85.9651C67.8537 86.5263 66.9864 86.8324 66.0171 86.8324L64.7927 86.5773C63.7723 86.2712 63.007 85.761 62.4458 84.9447C61.9867 84.1794 61.7316 83.3632 61.7316 82.5469Z" fill="white"/>
</svg>
