<svg width="80" height="173" viewBox="0 0 80 173" fill="none" xmlns="http://www.w3.org/2000/svg">
<path d="M0 132.538C0 125.915 1.55835 119.759 4.59713 113.993C7.63591 108.227 11.9214 103.474 17.4535 99.6565V22.3623C17.4535 16.1289 19.5573 10.8305 23.8428 6.54507C28.1282 2.25961 33.4266 0 39.66 0C45.9713 0 51.2697 2.18169 55.5552 6.46715C59.8406 10.8305 62.0223 16.051 62.0223 22.2844V99.5785C67.5545 103.396 71.762 108.227 74.8008 113.915C77.8396 119.603 79.32 125.837 79.32 132.46C79.32 139.628 77.5279 146.329 74.0216 152.407C70.5153 158.484 65.6844 163.315 59.6069 166.821C53.5293 170.328 46.9063 172.12 39.66 172.12C32.4916 172.12 25.8686 170.328 19.791 166.821C13.7135 163.315 8.8826 158.484 5.29839 152.407C1.71419 146.329 0 139.706 0 132.538ZM13.7135 132.538C13.7135 139.784 16.2848 146.017 21.3494 151.16C26.414 156.302 32.5695 158.874 39.7379 158.874C46.9842 158.874 53.2176 156.302 58.4381 151.082C63.6586 145.862 66.3078 139.706 66.3078 132.616C66.3078 127.785 65.0611 123.265 62.5677 119.136C60.0744 115.006 56.646 111.812 52.2826 109.552L50.1009 108.461C49.3218 108.149 48.9322 107.37 48.9322 106.202V22.3623C48.9322 19.869 48.0751 17.7652 46.283 16.051C44.4909 14.4147 42.3092 13.5576 39.66 13.5576C37.1666 13.5576 34.985 14.4147 33.1928 16.051C31.4007 17.6873 30.5437 19.791 30.5437 22.3623V106.046C30.5437 107.214 30.1541 107.994 29.4528 108.305L27.349 109.396C23.0636 111.656 19.7131 114.85 17.2977 118.98C14.8822 123.11 13.7135 127.551 13.7135 132.538ZM19.791 132.538C19.791 138.07 21.6611 142.823 25.479 146.719C29.297 150.614 33.8162 152.562 39.1925 152.562C44.5688 152.562 49.1659 150.614 53.1397 146.719C57.1135 142.823 59.0615 138.07 59.0615 132.616C59.0615 127.707 57.3473 123.343 53.9968 119.603C50.6464 115.863 46.5167 113.604 41.6859 112.98V55.6331C41.6859 55.1656 41.4521 54.6202 40.9067 54.1526C40.3613 53.6072 39.8158 53.3735 39.1925 53.3735C38.4912 53.3735 37.9458 53.6072 37.5562 53.9968C37.1666 54.4643 36.9329 54.9318 36.9329 55.6331V112.825C32.1799 113.526 28.1282 115.707 24.7778 119.447C21.4273 123.265 19.791 127.551 19.791 132.538Z" fill="white"/>
</svg>
