<svg width="80" height="80" viewBox="0 0 80 80" fill="none" xmlns="http://www.w3.org/2000/svg">
<path d="M0 27.2288C0 28.0287 0.29995 28.7286 0.933177 29.2952C1.46642 29.9284 2.1663 30.2283 3.03282 30.2283H51.9913C52.9578 30.2283 53.7576 30.5616 54.4242 31.2282C55.0907 31.8947 55.424 32.7279 55.424 33.6944C55.424 34.6609 55.0907 35.4608 54.4242 36.094C53.7576 36.7272 52.9578 37.0605 51.9579 37.0605C50.9914 37.0605 50.1582 36.7272 49.525 36.094C48.9918 35.4941 48.3252 35.2275 47.5253 35.2275C46.6922 35.2275 45.9923 35.5274 45.3924 36.094C44.7925 36.6606 44.4925 37.3605 44.4925 38.127C44.4925 38.9602 44.7925 39.6601 45.4257 40.2267C47.292 42.0597 49.4917 42.9929 51.9579 42.9929C54.5575 42.9929 56.7905 42.093 58.6568 40.2933C60.5232 38.4936 61.423 36.3273 61.423 33.7277C61.423 31.1282 60.4898 28.9286 58.6235 27.0622C56.7571 25.1959 54.5242 24.2627 51.9579 24.2627H3.03282C2.19963 24.2627 1.49975 24.5626 0.899849 25.1292C0.29995 25.6958 0 26.3956 0 27.2288ZM0 16.2973C0 17.0639 0.29995 17.7304 0.933177 18.3303C1.49975 18.9302 2.19963 19.1969 3.03282 19.1969H69.8216C72.4212 19.1969 74.6541 18.297 76.5205 16.464C78.3868 14.6643 79.32 12.4647 79.32 9.89842C79.32 7.33219 78.3868 5.09923 76.5205 3.2662C74.6541 1.43318 72.4212 0.5 69.8216 0.5C67.2554 0.5 65.0891 1.39985 63.3227 3.16622C62.7228 3.69946 62.4228 4.43267 62.4228 5.39918C62.4228 6.2657 62.7228 6.96558 63.2894 7.49883C63.8559 8.03207 64.5558 8.29869 65.389 8.29869C66.1889 8.29869 66.8888 8.03207 67.4887 7.49883C68.1219 6.79894 68.8884 6.46566 69.8216 6.46566C70.7881 6.46566 71.588 6.79894 72.2545 7.4655C72.9211 8.13205 73.2544 8.93192 73.2544 9.89842C73.2544 10.8649 72.9211 11.6648 72.2545 12.298C71.588 12.9312 70.7881 13.2645 69.8216 13.2645H3.03282C2.19963 13.2645 1.49975 13.5645 0.899849 14.131C0.29995 14.7643 0 15.4642 0 16.2973Z" fill="white"/>
</svg>
